<svg xmlns="http://www.w3.org/2000/svg" xmlns:xlink="http://www.w3.org/1999/xlink" width="512" height="512" viewBox="0 0 135.467 135.467"><defs><linearGradient id="d"><stop offset="0" stop-color="#353535"/><stop offset="1" stop-color="#454545"/></linearGradient><linearGradient id="c"><stop offset="0" stop-color="#272727"/><stop offset="1" stop-color="#1f1f1f"/></linearGradient><linearGradient id="b"><stop offset="0" stop-color="#303030"/><stop offset="1" stop-color="#404040"/></linearGradient><linearGradient id="a"><stop offset="0" stop-color="#9f164e"/><stop offset="1" stop-color="#a9265a"/></linearGradient><linearGradient xlink:href="#a" id="g" x1="231.325" y1="214.961" x2="231.325" y2="441.235" gradientUnits="userSpaceOnUse"/><linearGradient xlink:href="#b" id="f" x1="248.35" y1="291.303" x2="248.35" y2="76.14" gradientUnits="userSpaceOnUse"/><linearGradient xlink:href="#c" id="e" x1="226.274" y1="54.718" x2="226.274" y2="242.607" gradientUnits="userSpaceOnUse"/><linearGradient xlink:href="#d" id="h" x1="255.569" y1="341.618" x2="255.569" y2="512" gradientUnits="userSpaceOnUse"/></defs><g paint-order="fill markers stroke"><path fill="#030303" d="M0 0h135.467v135.467H0z"/><path d="M512 74.857c-4.057.499-8.064 1.156-12.043 1.905-3.979.749-7.93 1.59-11.871 2.459-7.883 1.736-15.733 3.577-23.715 4.996-3.991.71-8.014 1.314-12.092 1.746-4.077.432-8.21.692-12.416.715-4.206.022-8.486-.194-12.861-.713a100.007 100.007 0 01-13.43-2.537 49.243 49.243 0 01-6.144-1.563 63.733 63.733 0 01-5.975-2.275c-3.935-1.718-7.782-3.8-11.596-6.026-3.813-2.226-7.593-4.596-11.39-6.89-3.798-2.294-7.614-4.512-11.5-6.432a78.03 78.03 0 00-5.89-2.63 57.058 57.058 0 00-6.036-2.018 45.63 45.63 0 00-6.219-1.244 40.297 40.297 0 00-6.445-.301 39.83 39.83 0 00-6.707.806 44.313 44.313 0 00-7.01 2.079c-2.392.923-4.84 2.087-7.353 3.517-2.513 1.43-5.088 3.129-7.735 5.121-4.916 3.328-9.756 6.797-14.582 10.32-4.825 3.524-9.638 7.101-14.5 10.649-4.862 3.548-9.773 7.064-14.799 10.463-5.025 3.399-10.164 6.681-15.48 9.76-5.316 3.078-10.808 5.953-16.541 8.539a156.584 156.584 0 01-8.79 3.65 147.105 147.105 0 01-9.196 3.152 142.734 142.734 0 01-19.81 4.547c-3.476.542-7.043.968-10.71 1.268-3.667.3-7.432.471-11.307.508-9.233-.224-18.302-.7-27.183-1.467-4.44-.384-8.834-.84-13.178-1.373a328.119 328.119 0 01-12.877-1.836c-4.24-.692-8.429-1.468-12.56-2.328a264.19 264.19 0 01-12.223-2.844 239.044 239.044 0 01-11.87-3.39 217.906 217.906 0 01-11.497-3.965 200.452 200.452 0 01-11.11-4.565 186.369 186.369 0 01-10.7-5.193 175.556 175.556 0 01-10.278-5.848 167.835 167.835 0 01-9.834-6.533 163.098 163.098 0 01-9.373-7.244 161.27 161.27 0 01-8.893-7.98 162.608 162.608 0 01-8.398-8.749A166.96 166.96 0 010 55.573V512h512V74.857z" transform="scale(.26458)" fill="url(#e)"/><path d="M512 258.432l-.213.45a211.997 211.997 0 01-12.558-6.556 267.322 267.322 0 01-12.114-7.28 366.712 366.712 0 01-11.771-7.827 584.817 584.817 0 01-11.54-8.205c-7.635-5.558-15.182-11.25-22.783-16.848-7.6-5.598-15.252-11.101-23.095-16.28a299.204 299.204 0 00-11.924-7.495 229.562 229.562 0 00-12.31-6.838 188.817 188.817 0 00-12.807-6.008 164.493 164.493 0 00-13.405-5.008 151.52 151.52 0 00-14.109-3.838 147.615 147.615 0 00-14.92-2.494 152.064 152.064 0 00-15.836-.98c-5.443-.056-11.056.17-16.857.705h-.008c-4.782.347-9.505.878-14.2 1.511-4.693.634-9.356 1.372-14.015 2.13-4.659.757-9.313 1.535-13.99 2.255s-9.377 1.38-14.125 1.9c-4.748.52-9.544.9-14.416 1.06-4.872.158-9.82.095-14.87-.27a127.358 127.358 0 01-7.652-.786 124.08 124.08 0 01-15.843-3.173 129.374 129.374 0 01-8.23-2.508l-.016-.008-.014-.008c-6.163-2.599-12.529-4.707-18.836-7.025-3.154-1.16-6.292-2.371-9.383-3.723-3.09-1.351-6.135-2.843-9.097-4.562-2.962-1.72-5.841-3.667-8.604-5.93a59.29 59.29 0 01-7.902-7.82 62.773 62.773 0 01-3.625-4.78 69.244 69.244 0 01-3.373-5.445 79.319 79.319 0 01-3.094-6.174 93.71 93.71 0 01-2.79-6.967 165.293 165.293 0 00-3.493-8.63 117.313 117.313 0 00-3.528-7.36 81.498 81.498 0 00-3.56-6.144 55.73 55.73 0 00-3.584-4.987 38.321 38.321 0 00-3.602-3.89 26.793 26.793 0 00-3.611-2.856 20.114 20.114 0 00-3.625-1.89 17.007 17.007 0 00-3.639-.99 16.714 16.714 0 00-3.658-.157c-1.226.08-2.458.29-3.695.621a24.363 24.363 0 00-3.733 1.348 33.145 33.145 0 00-3.773 2.027c-2.53 1.565-5.08 3.545-7.649 5.865-2.567 2.32-5.15 4.98-7.742 7.9-2.59 2.922-5.19 6.105-7.797 9.47-2.606 3.364-5.218 6.91-7.834 10.56-5.23 7.3-10.474 15.018-15.705 22.522a614.968 614.968 0 01-7.834 11.02c-2.607 3.568-5.209 7.006-7.804 10.235-2.596 3.23-5.186 6.251-7.768 8.987-2.582 2.735-5.156 5.185-7.723 7.271L0 174.141V512h512V258.432z" transform="scale(.26458)" fill="url(#f)"/><path d="M512 224.143c-.823-.621-1.769-1.071-2.836-1.364-1.067-.292-2.254-.428-3.564-.42-1.31.009-2.743.162-4.295.444-1.553.282-3.227.694-5.02 1.222-3.586 1.057-7.653 2.58-12.197 4.46-4.544 1.879-9.566 4.116-15.059 6.6-5.493 2.486-11.459 5.218-17.892 8.09-6.434 2.873-13.334 5.886-20.7 8.929a559.06 559.06 0 01-23.484 9.11 472.875 472.875 0 01-26.238 8.643 85.53 85.53 0 01-7.397 1.141c-2.402.261-4.74.407-7.023.443a70.073 70.073 0 01-6.682-.209 66.826 66.826 0 01-18.22-4.066c-3.779-1.414-7.393-3.137-10.877-5.107-3.485-1.97-6.838-4.187-10.094-6.588-3.256-2.402-6.416-4.988-9.51-7.696-3.094-2.707-6.123-5.535-9.121-8.423-2.998-2.889-5.965-5.835-8.934-8.78-2.104-2.254-4.223-4.227-6.357-5.943a48.18 48.18 0 00-6.441-4.399 41.406 41.406 0 00-6.52-2.992 39.609 39.609 0 00-6.59-1.728 42.25 42.25 0 00-6.652-.6 49.554 49.554 0 00-6.71.387 62.411 62.411 0 00-6.757 1.232 82.977 82.977 0 00-6.799 1.942c-4.545 1.498-9.114 3.375-13.695 5.445-4.581 2.07-9.175 4.331-13.774 6.6-4.598 2.268-9.202 4.543-13.798 6.638-4.597 2.095-9.188 4.012-13.764 5.56a18.28 18.28 0 00-3.357 1.382 20.67 20.67 0 00-3.014 1.966c-1.907 1.487-3.617 3.306-5.197 5.338-1.58 2.033-3.032 4.28-4.416 6.621-1.385 2.342-2.703 4.78-4.022 7.196-1.319 2.415-2.637 4.808-4.021 7.06-1.384 2.253-2.833 4.365-4.412 6.22a27.818 27.818 0 01-2.475 2.57 20.48 20.48 0 01-2.719 2.095 16.678 16.678 0 01-3.013 1.531 15.7 15.7 0 01-3.354.88c-3.05.525-6.119 1.24-9.201 2.103-3.083.863-6.18 1.874-9.287 2.996-6.214 2.244-12.469 4.928-18.737 7.74-6.267 2.812-12.548 5.753-18.81 8.51a298.878 298.878 0 01-9.377 3.959 174.75 174.75 0 01-9.33 3.45A116.06 116.06 0 0161 317.038a82.57 82.57 0 01-9.168 1.73c-3.038.39-6.057.578-9.053.524a51.358 51.358 0 01-8.916-.922 47.304 47.304 0 01-8.758-2.6 49.962 49.962 0 01-8.578-4.511c-2.826-1.848-5.62-4.053-8.377-6.655-2.755-2.601-5.473-5.6-8.15-9.033V512h512V224.143z" transform="scale(.26458)" fill="url(#g)"/><path d="M512 429.143c-1.799 1.055-3.611 2.26-5.438 3.576a121.609 121.609 0 00-5.519 4.248c-3.708 3.01-7.471 6.327-11.293 9.67-3.822 3.342-7.703 6.71-11.643 9.82a122.763 122.763 0 01-5.955 4.436c-2 1.39-4.014 2.682-6.045 3.837-2.03 1.156-4.076 2.178-6.138 3.028a38.91 38.91 0 01-6.235 2.002 30.349 30.349 0 01-6.328.77 27.29 27.29 0 01-6.424-.678 29.577 29.577 0 01-6.523-2.338c-2.191-1.08-4.399-2.47-6.623-4.207-2.224-1.738-4.466-3.824-6.725-6.291-2.258-2.468-4.533-5.32-6.826-8.588-1.781-2.137-3.287-4.235-4.672-6.317-1.385-2.081-2.65-4.145-3.949-6.215-1.3-2.069-2.634-4.143-4.158-6.244a63.14 63.14 0 00-5.297-6.404c-2.06-2.176-4.464-4.4-7.37-6.693-2.904-2.294-6.308-4.66-10.368-7.116-4.06-2.456-8.776-5.002-14.303-7.664-5.527-2.66-11.865-5.437-19.168-8.347a63.407 63.407 0 01-6.893-3.07 93.704 93.704 0 01-6.894-3.954c-4.599-2.884-9.202-6.22-13.815-9.736-4.612-3.516-9.235-7.213-13.873-10.816-4.637-3.604-9.29-7.115-13.964-10.262a121.553 121.553 0 00-7.026-4.414 81.841 81.841 0 00-7.062-3.662c-2.36-1.074-4.726-1.988-7.1-2.71a43.135 43.135 0 00-7.144-1.55 35.394 35.394 0 00-7.19-.19c-2.405.187-4.82.636-7.242 1.38-2.423.742-4.855 1.78-7.297 3.148-2.442 1.367-4.895 3.063-7.357 5.123a135.597 135.597 0 01-9.1 6.025 122.993 122.993 0 01-9.117 5.008 114.217 114.217 0 01-9.131 4.037 108.956 108.956 0 01-9.147 3.111 106.969 106.969 0 01-18.335 3.643c-3.06.336-6.124.542-9.188.625-3.064.083-6.131.044-9.2-.11a129.526 129.526 0 01-9.208-.796 143.52 143.52 0 01-9.22-1.438 161.476 161.476 0 01-9.231-2.027 184.121 184.121 0 01-9.239-2.574c-6.162-1.887-12.328-4.104-18.5-6.59-6.171-2.486-12.348-5.242-18.527-8.201-3.621-1.887-7.012-3.393-10.193-4.555-3.182-1.162-6.153-1.977-8.938-2.484-2.784-.508-5.381-.706-7.812-.631a28.784 28.784 0 00-6.817 1.01 27.196 27.196 0 00-5.95 2.439 31.425 31.425 0 00-5.214 3.652c-1.63 1.397-3.157 2.959-4.605 4.653-1.449 1.694-2.817 3.519-4.127 5.44-2.621 3.84-5.011 8.064-7.34 12.384-2.329 4.32-4.597 8.738-6.979 12.967a128.961 128.961 0 01-3.68 6.168 74.573 74.573 0 01-3.976 5.67c-1.39 1.784-2.852 3.45-4.406 4.963-1.554 1.512-3.201 2.87-4.963 4.039V512h512v-82.857z" transform="scale(.26458)" fill="url(#h)"/></g></svg>